Coordinates
version=1
nRows=6
nColumns=36
inDegrees=yes

Units are S.I. units (second, meters, Newtons, ...)
If the header above contains a line with 'inDegrees', this indicates whether rotational values are in degrees (yes) or radians (no).

endheader
time	pelvis_tilt	pelvis_list	pelvis_rotation	pelvis_tx	pelvis_ty	pelvis_tz	hip_flexion_r	hip_adduction_r	hip_rotation_r	knee_angle_r	knee_angle_r_beta	ankle_angle_r	subtalar_angle_r	mtp_angle_r	hip_flexion_l	hip_adduction_l	hip_rotation_l	knee_angle_l	knee_angle_l_beta	ankle_angle_l	subtalar_angle_l	mtp_angle_l	lumbar_extension	lumbar_bending	lumbar_rotation	arm_flex_r	arm_add_r	arm_rot_r	elbow_flex_r	pro_sup_r	arm_flex_l	arm_add_l	arm_rot_l	elbow_flex_l	pro_sup_l
      0.00000000	      1.30574758	      1.69491926	      2.02446704	     -0.04406405	      0.94130815	      0.05135860	     -2.49625982	     -5.20913869	     -7.43916763	      5.48167680	      0.09567331	      1.97958603	     -5.61028649	     -7.92864404	     -5.85045729	     -5.75339996	     -9.90907778	      0.82566559	      0.01441058	      7.04455604	      6.87081322	     -7.92864404	    -10.96585941	      0.76702982	      1.31147507	     87.36235664	      1.72866769	     50.77785041	    122.85374400	     78.21619707	    100.47000453	      7.81283807	     80.82016345	     93.85983629	     80.99683863
      0.01666670	     -2.98607535	      1.07925884	      1.84602669	     -0.04042190	      0.93016877	      0.04987424	      1.70390174	     -4.84514436	     -8.06259239	      5.17292292	      0.09028454	      4.91386036	     -1.17396770	     -7.79568612	     -0.75045421	     -6.08731842	    -11.26610475	      0.76556416	      0.01336162	      6.72008045	      8.97491924	     -7.79568612	     -6.72025538	      1.34331574	      0.59122660	     92.37790118	      5.27946542	     49.24100700	    128.25691275	     85.44776153	    108.58776741	      6.28388391	     82.01430558	     94.38572558	     81.05413656
      0.03333330	     -4.11850572	      1.17626907	      1.72371741	     -0.03862622	      0.93044651	      0.05076984	      2.44779767	     -4.84757505	     -8.94916264	      4.32072444	      0.07541087	      5.21817363	     -0.46162808	     -7.59323707	      0.62592345	     -6.11577274	    -12.83821001	      0.76437792	      0.01334091	      6.14598296	     10.54950766	     -7.59323707	     -6.20132083	      0.96704353	      0.65237139	     93.31061010	      5.79914030	     46.22160049	    132.48861779	     87.93524717	    111.50500938	      6.19207121	     82.78677567	     94.79689860	     82.57207682
      0.05000000	     -4.65499124	      1.50168741	      1.83421334	     -0.03947226	      0.92848454	      0.04991388	      2.73279557	     -5.12613716	     -9.72380341	      3.88009687	      0.06772047	      5.89183197	      0.52860801	     -7.52217148	      1.12451091	     -5.83472423	    -13.23991792	      0.57715006	      0.01007317	      6.03074064	     10.73821627	     -7.52217148	     -5.98490688	      0.24285798	      1.09733148	     94.15117331	      6.29801094	     48.74516350	    135.88278699	     90.25388156	    112.09370720	      7.49085260	     83.93065945	     94.13235535	     84.28958544
      0.06666670	     -5.08292654	      1.74386472	      1.75982576	     -0.03783568	      0.93453883	      0.05033745	      2.99548398	     -5.26420135	    -10.27828893	      3.47894107	      0.06071898	      6.20996496	      1.28125202	     -7.51735145	      1.47644022	     -5.60614122	    -13.48349137	      0.51653596	      0.00901525	      5.72943255	     11.05818827	     -7.51735145	     -6.45144463	      0.39319047	      0.61723391	     89.88916639	      3.20693110	     45.11072041	    126.48572539	     86.89538299	    111.64904250	      7.07416239	     84.98439465	     92.31748868	     82.20647900
      0.08333330	     -5.14212969	      1.81781445	      1.70139391	     -0.03630943	      0.92968158	      0.05027755	      2.95477267	     -5.24199344	    -10.65218312	      3.15929339	      0.05514007	      6.58242255	      1.85943098	     -7.51675694	      1.39943772	     -5.52143200	    -13.65308233	      0.51610146	      0.00900767	      5.96176720	     11.45018393	     -7.51675694	     -6.34824682	      0.15114082	      2.38255846	     90.15996260	      2.32161518	     48.24176182	    126.62220074	     86.44422063	    110.60777443	      8.23907099	     84.36845762	     93.38792592	     82.24250937
